HIERARCHY
ROOT Hips
{
  OFFSET 5.84602e-005 68.8428 3.50346
  CHANNELS 6 Xposition Yposition Zposition Zrotation Xrotation Yrotation
  JOINT Spine
  {
    OFFSET 0 8.597 -4.6522
    CHANNELS 3 Zrotation Xrotation Yrotation
    JOINT Spine1
    {
      OFFSET 0 7.8454 0.4098
      CHANNELS 3 Zrotation Xrotation Yrotation
      JOINT Spine2
      {
        OFFSET 0 9.7078 -2.1609
        CHANNELS 3 Zrotation Xrotation Yrotation
        JOINT Neck
        {
          OFFSET 0 21.8761 -0.4549
          CHANNELS 3 Zrotation Xrotation Yrotation
          JOINT Head
          {
            OFFSET 0 12.3537 3.3602
            CHANNELS 3 Zrotation Xrotation Yrotation
            End Site
            {
              OFFSET 0.0001 18.9506 0.5657
            }
          }
        }
        JOINT LeftShoulder
        {
          OFFSET 2.2086 21.1115 7.2329
          CHANNELS 3 Zrotation Xrotation Yrotation
          JOINT LeftArm
          {
            OFFSET 13.1193 3.0282 -4.8998
            CHANNELS 3 Zrotation Xrotation Yrotation
            JOINT LeftForeArm
            {
              OFFSET 27.4081 -0.0973053 -0.2375
              CHANNELS 3 Zrotation Xrotation Yrotation
              JOINT LeftHand
              {
                OFFSET 22.8641 0.0662994 -0.1369
                CHANNELS 3 Zrotation Xrotation Yrotation
                JOINT LeftHandIndex1
                {
                  OFFSET 8.8614 0.775009 2.4612
                  CHANNELS 3 Zrotation Xrotation Yrotation
                  JOINT LeftHandIndex2
                  {
                    OFFSET 3.3146 -0.808304 0.5841
                    CHANNELS 3 Zrotation Xrotation Yrotation
                    JOINT LeftHandIndex3
                    {
                      OFFSET 2.2628 -0.552002 0.3989
                      CHANNELS 3 Zrotation Xrotation Yrotation
                      End Site
                      {
                        OFFSET 1.6102 -0.4807 0.2612
                      }
                    }
                  }
                }
                JOINT LeftHandMiddle1
                {
                  OFFSET 8.9937 0.895004 0.2143
                  CHANNELS 3 Zrotation Xrotation Yrotation
                  JOINT LeftHandMiddle2
                  {
                    OFFSET 4.0984 0.0113983 -0.0242
                    CHANNELS 3 Zrotation Xrotation Yrotation
                    JOINT LeftHandMiddle3
                    {
                      OFFSET 2.2716 0.00689697 -0.0138001
                      CHANNELS 3 Zrotation Xrotation Yrotation
                      End Site
                      {
                        OFFSET 2.0404 -0.1441 0.0027
                      }
                    }
                  }
                }
                JOINT LeftHandRing1
                {
                  OFFSET 8.5234 0.597198 -2.0164
                  CHANNELS 3 Zrotation Xrotation Yrotation
                  JOINT LeftHandRing2
                  {
                    OFFSET 3.7188 -0.188293 -0.2328
                    CHANNELS 3 Zrotation Xrotation Yrotation
                    JOINT LeftHandRing3
                    {
                      OFFSET 2.1191 -0.106598 -0.1332
                      CHANNELS 3 Zrotation Xrotation Yrotation
                      End Site
                      {
                        OFFSET 1.8737 -0.2304 -0.0886
                      }
                    }
                  }
                }
                JOINT LeftHandPinky1
                {
                  OFFSET 7.9094 -0.601089 -3.4825
                  CHANNELS 3 Zrotation Xrotation Yrotation
                  JOINT LeftHandPinky2
                  {
                    OFFSET 2.2874 -0.477005 -0.6314
                    CHANNELS 3 Zrotation Xrotation Yrotation
                    JOINT LeftHandPinky3
                    {
                      OFFSET 1.6774 -0.349396 -0.4633
                      CHANNELS 3 Zrotation Xrotation Yrotation
                      End Site
                      {
                        OFFSET 1.4888 -0.4091 -0.3416
                      }
                    }
                  }
                }
                JOINT LeftHandThumb1
                {
                  OFFSET 1.833 -1.3875 1.3896
                  CHANNELS 3 Zrotation Xrotation Yrotation
                  JOINT LeftHandThumb2
                  {
                    OFFSET 3.4129 -1.121 2.5732
                    CHANNELS 3 Zrotation Xrotation Yrotation
                    JOINT LeftHandThumb3
                    {
                      OFFSET 2.2474 -0.804199 1.6192
                      CHANNELS 3 Zrotation Xrotation Yrotation
                      End Site
                      {
                        OFFSET 1.6527 -0.5689 1.1317
                      }
                    }
                  }
                }
              }
            }
          }
        }
        JOINT RightShoulder
        {
          OFFSET -2.2086 21.1115 7.2329
          CHANNELS 3 Zrotation Xrotation Yrotation
          JOINT RightArm
          {
            OFFSET -13.1216 3.0287 -4.9007
            CHANNELS 3 Zrotation Xrotation Yrotation
            JOINT RightForeArm
            {
              OFFSET -27.4081 -0.0973053 -0.2375
              CHANNELS 3 Zrotation Xrotation Yrotation
              JOINT RightHand
              {
                OFFSET -22.8641 0.0664063 -0.1369
                CHANNELS 3 Zrotation Xrotation Yrotation
                JOINT RightHandIndex1
                {
                  OFFSET -8.8614 0.774994 2.4612
                  CHANNELS 3 Zrotation Xrotation Yrotation
                  JOINT RightHandIndex2
                  {
                    OFFSET -3.3146 -0.808304 0.5841
                    CHANNELS 3 Zrotation Xrotation Yrotation
                    JOINT RightHandIndex3
                    {
                      OFFSET -2.2628 -0.552002 0.3989
                      CHANNELS 3 Zrotation Xrotation Yrotation
                      End Site
                      {
                        OFFSET -1.6102 -0.4807 0.2612
                      }
                    }
                  }
                }
                JOINT RightHandMiddle1
                {
                  OFFSET -8.9937 0.894989 0.2143
                  CHANNELS 3 Zrotation Xrotation Yrotation
                  JOINT RightHandMiddle2
                  {
                    OFFSET -4.0984 0.0113983 -0.0242
                    CHANNELS 3 Zrotation Xrotation Yrotation
                    JOINT RightHandMiddle3
                    {
                      OFFSET -2.2716 0.00691223 -0.0138001
                      CHANNELS 3 Zrotation Xrotation Yrotation
                      End Site
                      {
                        OFFSET -2.0404 -0.1441 0.0027
                      }
                    }
                  }
                }
                JOINT RightHandRing1
                {
                  OFFSET -8.5234 0.597198 -2.0164
                  CHANNELS 3 Zrotation Xrotation Yrotation
                  JOINT RightHandRing2
                  {
                    OFFSET -3.7188 -0.188309 -0.2328
                    CHANNELS 3 Zrotation Xrotation Yrotation
                    JOINT RightHandRing3
                    {
                      OFFSET -2.1191 -0.106598 -0.1332
                      CHANNELS 3 Zrotation Xrotation Yrotation
                      End Site
                      {
                        OFFSET -1.8737 -0.2304 -0.0886
                      }
                    }
                  }
                }
                JOINT RightHandPinky1
                {
                  OFFSET -7.9094 -0.601105 -3.4825
                  CHANNELS 3 Zrotation Xrotation Yrotation
                  JOINT RightHandPinky2
                  {
                    OFFSET -2.2874 -0.477005 -0.6314
                    CHANNELS 3 Zrotation Xrotation Yrotation
                    JOINT RightHandPinky3
                    {
                      OFFSET -1.6774 -0.349396 -0.4633
                      CHANNELS 3 Zrotation Xrotation Yrotation
                      End Site
                      {
                        OFFSET -1.4888 -0.4091 -0.3416
                      }
                    }
                  }
                }
                JOINT RightHandThumb1
                {
                  OFFSET -1.833 -1.38751 1.3896
                  CHANNELS 3 Zrotation Xrotation Yrotation
                  JOINT RightHandThumb2
                  {
                    OFFSET -3.41299 -1.12099 2.5732
                    CHANNELS 3 Zrotation Xrotation Yrotation
                    JOINT RightHandThumb3
                    {
                      OFFSET -2.24741 -0.804108 1.6192
                      CHANNELS 3 Zrotation Xrotation Yrotation
                      End Site
                      {
                        OFFSET -1.6527 -0.5689 1.1317
                      }
                    }
                  }
                }
              }
            }
          }
        }
      }
    }
  }
  JOINT RightUpLeg
  {
    OFFSET -9.1966 3.8861 -0.7581
    CHANNELS 3 Zrotation Xrotation Yrotation
    JOINT RightLeg
    {
      OFFSET -0.7359 -41.0265 0
      CHANNELS 3 Zrotation Xrotation Yrotation
      JOINT RightFoot
      {
        OFFSET 0 -40.2855 0
        CHANNELS 3 Zrotation Xrotation Yrotation
        JOINT RightToeBase
        {
          OFFSET 0 -5.6122 11.7359
          CHANNELS 3 Zrotation Xrotation Yrotation
          End Site
          {
            OFFSET 0 0 7.8731
          }
        }
      }
    }
  }
  JOINT LeftUpLeg
  {
    OFFSET 9.1965 3.8864 -0.7581
    CHANNELS 3 Zrotation Xrotation Yrotation
    JOINT LeftLeg
    {
      OFFSET 0.7359 -41.0268 0
      CHANNELS 3 Zrotation Xrotation Yrotation
      JOINT LeftFoot
      {
        OFFSET 0 -40.2855 0
        CHANNELS 3 Zrotation Xrotation Yrotation
        JOINT LeftToeBase
        {
          OFFSET 0 -5.6122 11.7359
          CHANNELS 3 Zrotation Xrotation Yrotation
          End Site
          {
            OFFSET 0 0 7.8731
          }
        }
      }
    }
  }
}
MOTION
Frames:	4
Frame Time:	0.0333333
5.84602e-005 68.8428 3.50346 0 0 -0 0 0 -0 0 0 -0 0 0 -0 0 0 -0 0 0 -0 0 0 -0 0 0 -0 0 0 -0 0 0 -0 0 0 -0 0 0 -0 0 0 -0 0 0 -0 -0.0146107 -8.87603e-005 -2.63497e-007 2.99804e-018 -2.42657e-020 -1.42182e-022 0 0 -0 -0.0187562 -0.001176 5.858e-005 5.06224e-018 3.88251e-019 1.21329e-020 0 0 -0 -0.012269 -0.00324817 0.000675346 -1.74678e-018 3.88251e-019 -0 0 0 -0 0 0 -0 0 0 -0 0 0 -0 0 0 -0 0 0 -0 0 0 -0 0 0 -0 0 0 -0 0 0 -0 0 0 -0 0.0149955 -9.10982e-005 2.64101e-007 -9.69331e-018 1.21329e-020 -4.7394e-023 0 0 -0 0.0189956 -0.00119102 -5.96516e-005 -5.41541e-019 0 2.42657e-020 0 0 -0 0.0122698 -0.00324857 -0.000673756 -2.00796e-019 0 -1.94126e-019 0 0 -0 0 0 -0 0 0 -0 3.39842 1.33031 -0.0637918 -5.65207e-008 0.834868 -0.000436188 -3.39935 -2.16518 -0.0642563 -8.89002e-024 -1.18485e-023 -1.48106e-024 -3.39844 1.35642 0.0640283 -3.18788e-007 0.782166 -0.000588827 3.39931 -2.13858 0.0634662 1.1399e-023 0 -0 
-4.50687 15.0209 -26.102 -66.6651 65.2858 -0.00314402 2.19074 -1.30012 -0.551614 4.37057 -2.62036 -1.05352 4.37059 -2.62035 -1.05351 -9.18178 3.47858 5.56286 -0.0416813 4.72112 0.0288198 50.4217 23.5703 -41.4539 15.7283 -16.6761 -34.7728 -21.9384 -20.7571 -45.1377 1.92647 -52.599 -42.9013 1.26649e-006 4.73984e-007 1.00846e-006 1.26649e-006 4.73984e-007 1.00846e-006 1.26649e-006 4.73984e-007 1.00846e-006 1.26649e-006 4.73984e-007 1.00846e-006 -0.0146472 -8.54213e-005 4.18283e-007 1.26646e-006 4.73855e-007 1.00852e-006 1.26649e-006 4.73984e-007 1.00846e-006 -0.0187784 -0.00118039 6.65559e-005 1.18134e-006 1.56149e-006 4.21889e-007 1.26649e-006 4.73984e-007 1.00846e-006 -0.0122954 -0.00326296 0.000680056 1.2665e-006 4.73861e-007 1.00848e-006 1.26649e-006 4.73984e-007 1.00846e-006 1.26649e-006 4.73984e-007 1.00846e-006 1.26649e-006 4.73984e-007 1.00846e-006 5.706 -6.81681 14.5851 60.4873 -3.41163 0.0768411 29.3855 -40.2222 68.7291 61.6551 -10.1716 -49.0832 7.95139e-016 -6.36111e-015 1.59028e-015 2.4209e-007 -1.00804e-006 7.49704e-007 1.61394e-007 -6.72027e-007 4.99802e-007 7.95139e-016 -6.36111e-015 1.59028e-015 0.0150028 -9.33786e-005 -9.34611e-007 1.61389e-007 -6.71962e-007 4.9989e-007 7.95139e-016 -6.36111e-015 1.59028e-015 0.0190551 -0.0011955 -5.96368e-005 1.61393e-007 -6.71944e-007 4.99913e-007 7.95139e-016 -6.36111e-015 1.59028e-015 0.0122841 -0.00325314 -0.000677736 1.61408e-007 -6.71972e-007 4.9987e-007 7.95139e-016 -6.36111e-015 1.59028e-015 2.4209e-007 -1.00804e-006 7.49704e-007 1.61394e-007 -6.72027e-007 4.99802e-007 -5.66986 -19.15 -9.75243 24.4418 41.1036 -23.4195 -11.5872 26.0982 8.06304 5.61416e-008 -3.13263e-006 8.28578e-007 -1.07821 -23.6701 -0.51375 -4.01193 -2.14577e-006 2.12248 5.89472 20.8364 -0.593457 -4.8999e-006 -6.95155e-008 2.5271e-006 
-1.66572 -8.44185 -37.9171 83.3055 85.8414 -179.974 3.12514 -1.73345 -1.17255 6.21858 -3.52784 -2.2504 6.21859 -3.52784 -2.2504 -13.4891 5.00765 8.11741 0.00130878 6.78058 -0.0930271 82.4999 23.7967 -62.1579 16.6902 -18.9351 -51.6769 -40.2645 -19.2691 -66.2682 -31.552 -54.2918 -87.5405 -5.77651e-007 -2.33706e-006 -6.89496e-008 -2.40145e-008 -1.27195e-006 3.47111e-006 3.65089e-007 4.98077e-007 2.93856e-006 -5.77651e-007 -2.33706e-006 -6.89496e-008 -0.0145987 -8.93295e-005 3.69962e-006 3.65177e-007 4.97703e-007 2.93862e-006 -5.77651e-007 -2.33706e-006 -6.89496e-008 -0.0187407 -0.0011768 6.29895e-005 3.6523e-007 4.97603e-007 2.93864e-006 -5.77651e-007 -2.33706e-006 -6.89496e-008 -0.0122807 -0.00325345 0.000679133 3.65248e-007 4.97779e-007 2.9386e-006 -5.77651e-007 -2.33706e-006 -6.89496e-008 -2.40145e-008 -1.27195e-006 3.47111e-006 3.65089e-007 4.98077e-007 2.93856e-006 9.38024 -9.99658 21.6364 87.5239 -4.95438 0.210418 54.7104 -24.2891 92.9838 85.113 -7.47633 -70.8739 2.5842e-015 1.59028e-015 -0 1.09332e-015 1.59028e-015 7.95139e-016 -1.89792e-008 -1.41667e-007 -1.58411e-007 2.5842e-015 1.59028e-015 -0 0.0149936 -9.04243e-005 -8.04213e-007 -5.39047e-007 -1.98314e-008 1.12813e-008 2.5842e-015 1.59028e-015 -0 0.0189823 -0.00118909 -5.9385e-005 -1.89817e-008 -1.41693e-007 -1.58387e-007 2.5842e-015 1.59028e-015 -0 0.0122254 -0.00323718 -0.000671809 -1.89835e-008 -1.41683e-007 -1.58395e-007 2.5842e-015 1.59028e-015 -0 1.09332e-015 1.59028e-015 7.95139e-016 -1.89792e-008 -1.41667e-007 -1.58411e-007 -10.8965 -27.2391 -14.5057 47.7285 52.7991 -43.2579 -18.8198 40.3505 13.5497 3.21e-007 2.86548e-006 -1.57017e-007 -0.286896 -35.2381 -0.703335 -5.77757 2.34289 3.13578 7.1988 29.2222 -0.661608 1.86361e-017 -9.93923e-017 -9.91982e-016 
-2.90303 -2.96545 -35.3241 -89.9728 86.6182 -0.0290759 2.95039 -1.23241 -1.02749 5.88036 -2.51577 -1.99078 5.88035 -2.51576 -1.99079 -12.4189 4.64803 7.6262 0.128403 6.17823 -0.365437 74.6745 24.1444 -57.0085 16.6234 -18.7672 -47.6159 -35.8421 -20.8688 -61.011 -25.4179 -55.523 -78.8807 4.81884e-007 -9.61081e-007 -8.91872e-007 -1.59028e-014 9.54166e-015 3.18055e-015 -1.59028e-014 1.11319e-014 3.18055e-015 4.81884e-007 -9.61081e-007 -8.91872e-007 -0.0145502 -8.78517e-005 8.38924e-008 -2.38542e-015 3.18055e-015 -0 4.81884e-007 -9.61081e-007 -8.91872e-007 -0.0187383 -0.00117465 6.18689e-005 0 3.18055e-015 -0 4.81884e-007 -9.61081e-007 -8.91872e-007 -0.0122646 -0.00324441 0.000679394 -2.38542e-015 3.18055e-015 -6.36111e-015 4.81884e-007 -9.61081e-007 -8.91872e-007 -1.59028e-014 9.54166e-015 3.18055e-015 -1.59028e-014 1.11319e-014 3.18055e-015 8.42457 -10.3839 20.7902 81.1009 -4.62848 0.400102 50.3569 -29.4594 89.6574 79.7931 -8.31004 -65.6802 -8.69683e-016 1.59028e-015 2.98177e-016 -7.45443e-017 1.59028e-015 2.98177e-016 -7.45443e-017 0 -0 -8.69683e-016 1.59028e-015 2.98177e-016 0.0149956 -8.9773e-005 4.65002e-007 9.44227e-016 -1.59028e-015 9.93923e-017 -8.69683e-016 1.59028e-015 2.98177e-016 0.0189973 -0.00119021 -6.24081e-005 -1.33683e-014 -6.36111e-015 2.88238e-015 -8.69683e-016 1.59028e-015 2.98177e-016 0.0122685 -0.0032479 -0.00067444 -3.23025e-016 6.36111e-015 1.98785e-016 -8.69683e-016 1.59028e-015 2.98177e-016 -7.45443e-017 1.59028e-015 2.98177e-016 -7.45443e-017 0 -0 -8.76007 -24.2765 -12.0196 41.2532 50.5081 -37.6494 -15.5581 37.3401 10.957 1.06449e-007 -2.64411e-006 2.18363e-006 -0.484173 -31.364 -0.723132 -5.30465 1.86393 2.85457 6.76154 26.9852 -0.479387 3.30557e-006 3.52394e-006 -3.63109e-006 
